<?xml version="1.0" encoding="UTF-8"?>
<svg
        id="uuid-7cef365c-775f-400f-863f-590a2de7d801"
        width="80"
        height="80"
        data-name="Learniverse Logo"
        xmlns="http://www.w3.org/2000/svg"
        viewBox="0 0 41.31 24.7">
    <title>Learniverse Connect logo</title>
    <desc>Small logo for Learniverse Connect</desc>
    <g id="uuid-1e178c79-42cf-4e1b-85fa-7d6202b6c98d" data-name="Layer 1">
        <g>
            <path d="M40.43,21.03c.24,0,.44.1.62.31.17.21.26.46.26.73v1.85c0,.21-.06.39-.19.55-.13.15-.28.23-.46.23H.69c-.2,0-.36-.08-.49-.23-.13-.15-.2-.35-.2-.59V.78c0-.21.06-.39.19-.55.13-.15.28-.23.46-.23h7.96c.18,0,.34.08.46.23.13.15.19.34.19.55v19.37c0,.24.07.44.22.62.15.18.33.26.54.26h30.42Z"
                  style="fill: #231f20;"/>
            <path d="M41.31,2.18c0,.15-.06.29-.18.4-.12.11-.26.17-.41.17h-17.17c-.17,0-.31.06-.42.18-.11.12-.17.26-.17.41v12.02c0,.15.06.29.17.41.11.12.25.18.42.18h17.17c.15,0,.29.06.41.17.12.11.18.25.18.4v1.6c0,.17-.06.31-.18.42-.12.11-.26.17-.41.17H14.4c-.34,0-.65-.06-.96-.19s-.56-.3-.79-.52c-.22-.22-.4-.49-.53-.79-.13-.3-.19-.62-.19-.96V2.46c0-.34.06-.65.19-.96.13-.3.3-.56.53-.79.22-.22.49-.4.79-.53.3-.13.62-.19.96-.19h26.32c.15,0,.29.06.41.17.12.11.18.25.18.42v1.6Z"
                  style="fill: #231f20;"/>
        </g>
    </g>
</svg>